<?xml version="1.0" encoding="UTF-8" standalone="no"?>
<svg
   width="4319.9888"
   height="1080"
   viewBox="0 0 4319.9888 1080"
   version="1.1"
   id="svg14"
   sodipodi:docname="logo-soriana.svg"
   inkscape:version="1.1 (c68e22c387, 2021-05-23)"
   xmlns:inkscape="http://www.inkscape.org/namespaces/inkscape"
   xmlns:sodipodi="http://sodipodi.sourceforge.net/DTD/sodipodi-0.dtd"
   xmlns="http://www.w3.org/2000/svg"
   xmlns:svg="http://www.w3.org/2000/svg">
  <defs
     id="defs18" />
  <sodipodi:namedview
     id="namedview16"
     pagecolor="#ffffff"
     bordercolor="#666666"
     borderopacity="1.0"
     inkscape:pageshadow="2"
     inkscape:pageopacity="0.0"
     inkscape:pagecheckerboard="0"
     showgrid="false"
     fit-margin-top="0"
     fit-margin-left="0"
     fit-margin-right="0"
     fit-margin-bottom="0"
     inkscape:zoom="0.089493202"
     inkscape:cx="1938.6947"
     inkscape:cy="1625.8218"
     inkscape:window-width="1920"
     inkscape:window-height="1017"
     inkscape:window-x="1912"
     inkscape:window-y="-8"
     inkscape:window-maximized="1"
     inkscape:current-layer="svg14" />
  <g
     fill="none"
     fill-rule="evenodd"
     id="g12"
     transform="matrix(30.857143,0,0,30.857143,-0.01110856,0)">
    <g
       id="g10">
      <g
         id="g8">
        <path
           fill="#d52b1e"
           d="m 30.402,3.415 c -1.859,0 -4.436,0.79 -6.308,3.366 -0.344,0.47 -0.625,1.068 -0.79,1.657 -0.572,2.007 -0.17,4.216 1.085,5.908 0.962,1.302 2.19,2.276 3.274,3.136 0.53,0.42 1.655,1.484 2.018,1.935 0.541,0.677 0.953,1.08 1.442,2.57 0.296,0.904 0.338,2.095 0.193,2.77 3.393,-3.44 7.099,-7.905 7.099,-12.762 0,-5.58 -3.997,-8.58 -8.013,-8.58"
           id="path2" />
        <path
           fill="#b6bf00"
           d="m 24.088,22.281 c -1.416,-1.929 -3.054,-3.1 -4.406,-4.334 -0.59,-0.537 -1.236,-0.933 -1.714,-1.41 -2.293,-2.278 -3.365,-5.086 -2.823,-8.543 0.428,-2.711 1.774,-4.492 3.4,-5.8 C 16.604,0.772 14.301,0 11.699,0 5.24,0 -0.16,5.19 0.004,11.59 0.297,23.142 14.766,32.986 20.728,35 c 3.188,-1.632 4.882,-4.684 4.882,-7.815 0,-2.283 -0.978,-4.164 -1.522,-4.904"
           id="path4" />
        <path
           fill="#d52b1e"
           d="m 48.319,22.109 c 1.111,0.797 3.305,1.822 4.86,1.822 1.195,0 2.224,-0.455 2.224,-1.763 0,-1.28 -1.613,-1.736 -3.25,-2.39 -1.89,-0.74 -3.778,-1.91 -3.778,-4.982 0,-4.094 2.971,-6.26 7.279,-6.26 2.831,0 5.357,1.452 6.663,2.992 l -2.833,3.011 c -1.277,-1.106 -2.693,-1.933 -4.055,-1.933 -1.111,0 -1.942,0.455 -1.942,1.48 0,1.395 1.193,1.735 3.22,2.59 1.943,0.824 3.943,2.02 3.943,4.953 0,3.981 -3.166,6.542 -7.665,6.542 -3.168,0 -5.833,-1.337 -6.887,-2.19 l 2.22,-3.872 z m 22.645,-1.382 c 0.165,-0.907 0.22,-1.729 0.22,-2.348 0,-1.36 -0.413,-2.18 -1.377,-2.18 -1.293,0 -2.147,1.3 -2.561,3.652 -0.165,0.902 -0.248,1.867 -0.248,2.6 0,1.246 0.33,2.264 1.35,2.264 1.348,0 2.148,-1.218 2.616,-3.988 m -0.387,-7.922 c 1.957,0 5.399,0.762 5.399,5.46 0,0.624 -0.028,1.357 -0.14,2.122 -0.85,5.547 -4.266,7.784 -8.176,7.784 -3.414,0 -5.343,-2.04 -5.343,-5.66 0,-0.68 0.027,-1.5 0.164,-2.293 1.019,-5.943 4.93,-7.413 8.096,-7.413 m 11.466,14.512 h -4.36 l 1.906,-11.429 0.104,-2.673 h 3.5 l 0.077,1.959 c 0.967,-1.736 2.325,-2.37 3.42,-2.37 0.76,0 1.568,0.193 2.09,0.55 l -1.253,3.83 c -0.495,-0.278 -1.124,-0.496 -1.774,-0.496 -1.126,0 -2.012,0.714 -2.247,2.01 l -1.463,8.62 z m 5.884,0 2.39,-13.658 h 4.439 L 92.365,27.317 Z M 93.447,6.83 c 1.336,0 2.163,0.988 2.163,2.193 0,1.635 -1.309,2.928 -2.989,2.928 -1.364,0 -2.133,-0.895 -2.133,-2.126 0,-1.602 1.252,-2.996 2.959,-2.996 m 11.633,9.518 c -0.312,-0.14 -0.76,-0.227 -1.27,-0.227 -2.566,0 -3.492,3.885 -3.492,6.214 0,1.358 0.308,2.461 1.66,2.461 0.96,0 1.635,-0.618 1.916,-1.611 l 1.185,-6.837 z m 3.154,8.338 -0.197,3.063 h -3.974 v -1.334 l -0.141,-0.027 c -0.984,1.163 -2.252,1.784 -3.943,1.784 -3.016,0 -4.37,-2.235 -4.37,-5.302 0,-5.813 3.215,-10.064 9.104,-10.064 1.181,0 3.295,0.282 5.409,1.132 z m 1.888,2.632 1.928,-11.264 0.16,-2.838 h 3.696 l 0.054,1.516 c 1.044,-1.184 2.437,-1.926 4.232,-1.926 2.222,0 3.561,1.045 3.588,3.413 0,0.44 -0.054,0.994 -0.135,1.513 l -1.659,9.586 h -4.474 l 1.395,-8.234 c 0.08,-0.44 0.213,-1.076 0.213,-1.598 0,-0.551 -0.213,-1.156 -1.018,-1.156 -1.153,0 -1.822,0.883 -2.01,2.037 l -1.525,8.951 z m 24.833,-10.97 c -0.31,-0.14 -0.762,-0.227 -1.268,-0.227 -2.565,0 -3.495,3.885 -3.495,6.214 0,1.358 0.31,2.461 1.664,2.461 0.956,0 1.634,-0.618 1.915,-1.611 z m 3.156,8.338 -0.198,3.063 h -3.973 v -1.334 l -0.141,-0.027 c -0.987,1.163 -2.254,1.784 -3.943,1.784 -3.016,0 -4.368,-2.235 -4.368,-5.302 0,-5.813 3.211,-10.064 9.101,-10.064 1.182,0 3.295,0.282 5.411,1.132 z"
           id="path6" />
      </g>
    </g>
  </g>
</svg>
